<svg clip-rule="evenodd" fill-rule="evenodd" stroke-linejoin="round" stroke-miterlimit="2" viewBox="90 135 380 140" xmlns="http://www.w3.org/2000/svg"><path d="m135 .2c.3-.1.5-.2.5-.2.4 0 1.3.5 4.3 2.2l3.2 1.8v4.9l-1.2.1c-3 .2-6.7.9-9.4 1.7-8.8 2.7-16.3 8.1-21.6 15.5l-.8 1.1-.2-.3c-.2-.2-1.3-1.8-2.5-3.7-2.3-3.6-2.6-4.1-2.4-4.9.1-.6.5-1.2.9-1.4s.8-.2 5.7-.8c1.4-.1 2.6-.3 2.8-.4.5-.3 1.2-.8 1.4-1.3.1-.2.6-2 1.2-3.9s1.1-3.6 1.2-3.8c.2-.4.7-.8 1.2-.9.3-.1 1.3.1 4.2.8 2.1.5 4 .9 4.3.9.6 0 1.5-.4 1.9-.8.2-.2 1.2-1.5 2.2-2.9 2.5-3.3 2.6-3.5 3.1-3.7zm17.6-.1c.5-.1.7-.1 1.1.1.5.2.7.4 3.1 3.7 2.1 2.9 2.2 3.1 2.9 3.4.7.4 1.5.4 2.9 0 2.7-.7 5.8-1.4 6.3-1.4.6 0 1.1.2 1.4.7.3.4 1.1 2.9 1.9 5.8.3.8.6 1.7.7 1.9.3.6 1 1.2 1.5 1.4.3.1 1.5.2 2.8.4 4.5.5 5.3.6 5.8.9.7.5 1 1.6.7 2.5-.1.4-4.9 7.5-5 7.5s-.4-.4-.8-.9c-2.4-3.2-5.4-6.3-8.5-8.7-6.1-4.8-13.9-7.7-22.1-8.4-.4 0-1-.1-1.2-.1l-.4-.1v-4.8l3.3-1.9c1.8-1.1 3.4-2 3.6-2zm-9.5 10.9c1-.1 3.9 0 5 .4 2.6.2 5.8.9 8.3 1.7 9.8 3.2 17.8 10.1 22.4 19.3.7 1.4 1.7 3.5 1.6 3.6-.1 0-1.4-.3-3-.6-4.7-1-10.1-1.8-14.3-2.3-.8-.1-1.7-.2-1.9-.3s-.6-.4-1-.7c-1.5-1.2-1.9-1.6-2.9-2.2-2.7-1.8-5.7-3-8.9-3.6-1.5-.3-5-.4-6.8-.2-4.9.5-9.6 2.5-13.1 5.7-.9.8-1.1.9-4.1 1.2-4.7.5-8.7 1.1-13 1.9-2.4.5-2.7.5-2.7.3s.9-2.1 1.4-3.2c2-4 5.2-8.2 8.5-11.1 7.1-6.2 15-9.4 24.5-9.9zm18 8.3c-.4-.2-.7-.4-.7-.2-.1 0-.2.2-1.9 3.2-.8 1.4-1.4 2.5-1.4 2.5.1.1 1.4.8 1.4.8.1-.1 1.2-2 1.4-2.4.1-.3.2-.5.2-.3-.1.5-.5 3.1-.5 3.3 0 0 .3.3.7.5.5.2.7.3.8.2.1-.2 3-5.1 3.1-5.4.1-.2-.1-.3-.6-.6-.3-.2-.7-.4-.7-.4s-.4.5-.7 1.1c-.4.6-.7 1.1-.8 1.1s-.1 0-.1-.2.1-.7.2-1.3.2-1.2.2-1.3c.1-.2 0-.3-.6-.6zm-31.2 2.5c-.9-1.4-1.6-2.5-1.4-2.5 0-.1-.3.1-.7.3-.4.3-.7.5-.8.5-.1.1.2.5.5 1.1.4.5.6 1 .6 1s-.1.1-.3.2c-.1.1-.3.2-.3.2-.1 0-.4-.5-.7-1l-.6-1-.7.5c-.4.3-.7.5-.7.6s3.1 5.1 3.3 5.3c.1.2.2.1.6-.1.2-.2.6-.4.7-.5l.2-.2-.7-1.1c-.4-.6-.7-1.1-.7-1.1 0-.1.1-.2.3-.3l.3-.2.7 1.1c.4.6.7 1 .8 1 .1-.1.5-.3.8-.5.6-.3.6-.4.5-.6-.1-.1-.8-1.3-1.7-2.7zm39.1 3.2c-1.2-.6-2.5-.1-3.8 1.3-.8.8-1.1 1.5-1.1 2.4 0 .6.1.7.4 1.2.9 1.3 2.6 1.3 4.1-.1.6-.6.6-.5-.4-1.6l-.7-.8-.4.5c-.3.3-.4.5-.4.6.2.4.2.5-.1.6-.4.2-.8 0-.8-.3s.6-1.3 1.1-1.7c.4-.3 1.1-.7 1.3-.7s.4.3.4.7c0 .3.1.4.7.7.3.1.7.3.7.3.1 0 .3-.7.3-1 0-.8-.6-1.7-1.3-2.1zm-33.4-7.5c0-.2-.2-.5-.5-.7l-.2-.4-1.5.5c-.8.3-1.5.6-1.5.6 0 .1 2 6.1 2.1 6.2.1 0 2.9-.9 3-1s-.2-1.3-.4-1.4c-.1 0-.4 0-.7.1l-.6.2-.2-.4c-.2-.5-.2-.5.6-.8.3-.1.5-.2.5-.3 0-.2-.3-1.1-.4-1.2 0-.1-.3-.1-.6 0-.6.2-.7.1-.8-.3-.1-.3 0-.3.6-.6.6-.2.7-.3.6-.5zm20-.4c-.7-.2-.7-.2-.8-.1s-2 6.1-2 6.1c.1.1 1.7.5 1.7.5.1 0 .5-1.4 1.1-3.1 1.1-3.4 1.1-3.1 0-3.4zm-33.831 7.308c-.159.068-.721.544-1.369 1.192l-1.3 1.2 1 1 .7-.6 1.6 1.6c1 .9 1.7 1.6 1.8 1.6s.4-.3.7-.6l.6-.6-3.4-3.4.4-.6-.4-.5c-.145-.096-.266-.216-.331-.292zm23.831-9.008c0-.1-.4-.2-.8 0l-.8-.1.1.3c.1.2.3 1.6.5 3.3.3 1.6.5 3 .5 3s.4.1.9.1l.8.1.4-1.7c.5-2 .5-2 .7.5l.1 1.3h1.7c0-.1 1.8-6.4 1.8-6.4-.1 0-.4-.1-.9-.1-.8-.1-.8-.1-.9.1-.1.3-.6 2.5-.7 3-.1.3-.1.1-.3-1.4-.1-1-.3-1.9-.3-1.9-.1 0-.4-.1-.8-.1h-.7l-.4 1.6c-.5 1.9-.6 1.9-.7-.2-.1-.7-.2-1.3-.2-1.4zm48.6-1.1c.6 0 2-.1 3.2.1 1.1 0 22.1.1 46.6.3 24.5.1 44.6.3 44.6.3.1.1-1 1.2-1.7 1.8-1.4 1-3.1 1.8-5.9 2.5-1.7.4-2.9.7-5.1.9-2.5.3-10.5.3-43.5.1-16.2-.1-31.3-.2-33.4-.2-4.6 0-4.2-.2-4.8 1.6-1.5 4.4-3.9 7-7.5 8.1-2 .6-3.1.9-3.4.9s-.9-.3-1-.5c-.1-.1 0-2.3.1-2.6 0-.1.4-.4.9-.7 1.5-1.1 2.9-2.7 3.6-4.4.5-1.1.8-2.2.9-3.6.1-.7.2-1.5.3-1.7.3-.6.7-1.2 1.2-1.5 1-.6 3.2-1.3 4.9-1.4zm-125.3.1c5.9 0 14.1-.1 18.6-.1 7.6 0 7.9 0 8.8.2 1.7.4 3.1 1.1 3.7 1.7.5.6.7 1.2.8 2.5.1.6.2 1.5.3 2 .2 1 1.1 2.8 1.8 3.7.4.6 2.4 2.5 3.2 3.1.1.1.2.5.2 1.3.1 1.1.1 1.2-.2 1.4-.5.4-.8.4-2.9-.2-2.3-.6-2.8-.8-3.8-1.4-2.1-1.3-3.9-3.7-5.1-7-.2-.6-.5-1.3-.6-1.4l-.2-.2h-5.4c-3 0-16.2.1-29.4.3-31.6.2-42.8.2-45 0-6.7-.7-11.3-2.2-13.3-4.6-.2-.3-.4-.7-.4-.7.1-.1 13.2-.2 29.2-.3s33.9-.3 39.7-.3zm-58.5 8.6c-.1-.3-.1-.3.3-.3.7.1 3.6.4 5.9.5 1.7.1 4.7.2 9.7.1l7.2-.1.1.5c.3.8.9 2 1.4 2.7s1.8 2.1 2.4 2.4l.3.3c0 .1-.4.2-3 .4-6.9.6-11.5.5-14.9-.2-3.6-.8-5.9-2-7.7-3.9-.7-.8-1.6-2-1.7-2.4zm266.6-.2c.9-.1 1.3-.1 1.3-.2 0 .2-.8 1.4-1.4 2.1-1.7 2.1-3.9 3.3-7.5 4.2-2.6.6-3.2.7-7.6.7-3.3 0-4.6 0-7-.2-3.5-.3-3.9-.3-3.9-.4l.6-.4c.7-.5 2-1.9 2.5-2.8.4-.6.8-1.5 1.1-2.3 0-.1.8-.1 8.8-.2 8.7 0 10.1-.1 13.1-.5zm-215.1.3c5.2-.1 14.1-.1 19.6-.1h10.5l.5 1.3c1.9 5.4 4.9 8.5 9.4 10.1.5.1.9.3.9.4l-.2.8c-.2.6-.2.7-.6.9-.6.3-1.4.3-2.4 0-.4-.1-1.1-.3-1.6-.4-2-.5-3.6-1.4-5.2-3.1-.6-.5-1.3-1.4-1.6-1.9-.6-.8-1.8-3.2-1.8-3.5 0-.1 0-.2-.1-.2 0 0-1.6.1-3.6.3-17.9 1.9-29.9 2.8-34.6 2.5-3.1-.2-5.7-.7-8.5-1.6-2.3-.8-4.2-1.9-5.4-3.1-.7-.8-1.5-1.8-1.3-2 .1-.1 12.1-.3 26-.4zm134.4 0c0-.1 1.1-.2 4.8 0 6.8 0 51.6.3 51.7.4s0 .4-.2.7c-.4.7-1.6 2-2.7 2.7-1.9 1.3-5.8 2.6-9 3.1-3.1.5-7.8.6-11.7.3-8.5-.6-15.2-1.2-24.6-2.2-2.9-.3-5.2-.5-5.3-.5 0 .1-.3.6-.5 1.1-.6 1.3-1.1 2.1-2 3.3-1.7 2.3-3.6 3.6-6.1 4.2-.5.1-1.3.3-1.7.4-1.3.3-1.5.3-2.2.1l-.6-.2-.3-.8c-.2-.5-.2-.9-.2-.9.1 0 .4-.2.8-.3 2.2-.8 4.4-2.2 5.6-3.5 1.4-1.4 3-4.3 3.8-6.6.2-.6.4-1.2.4-1.3zm-54.7 4.9c1.2-.1 4.2-.1 5.5-.1 2.3.3 4.6.9 6.6 1.8.9.4 2.7 1.6 3.1 2l.2.2-1.1-.1c-7-.4-16.7-.4-22.7-.1l-1.1.1.2-.2c.3-.3 1.8-1.3 2.8-1.8 1.7-.8 4.3-1.5 6.5-1.8zm57.4 4.6 1.5-2.2.9.1c.5 0 3.4.3 6.4.6 8.1.8 9.8.9 13.5 1.2 4.2.3 7.8.5 11.1.7 3.9.2 7.6-.1 11-.9 1.7-.4 2.4-.5 2.6-.3.1 0 .1.2-.2.7-1.9 3.4-5.5 5.4-11.1 6-1.4.2-6.1.2-7.4 0-19.8-2.3-29.3-3.4-29.5-3.5l-.3-.1zm-117.5-1.8c2.8-.2 5.4-.5 5.8-.4h.8l1.5 2.3c1.1 1.6 1.5 2.3 1.4 2.4-.1 0-.4.1-.8.1s-4 .4-8.2.9c-16.4 1.9-20.6 2.3-23.2 2.5-3.4.2-7.3-.3-10-1.3-2.3-.9-4-2.1-5.3-3.8-.7-1-1.1-1.8-1-1.9.2-.2 1-.1 2.2.2 1.7.4 3.5.7 5.6.9 4.5.4 14.1-.1 31.2-1.9zm-47.8 1.4c2.6-.2 5.1-.4 5.6-.4h.7l.5 1c.9 1.8 1.8 3.1 3.3 4.4l.7.6-.8.1c-1.5.2-4.8.6-6.8.7-5.9.3-11-.7-14-2.8-.9-.6-2.3-2.1-2.8-2.9-.5-.9-.5-1 0-.9 1.4.3 3.1.4 5.8.5s3.4 0 7.8-.3zm214.3.8.7-1.2 1 .1c.6.1 3 .2 5.4.4 5.4.4 10 .4 11.8.1.7-.1 1.4-.3 1.7-.3l.5-.1-.6.9c-1.2 1.7-2.3 2.8-3.9 3.7-2.8 1.6-7.7 2.5-12.5 2.1-2-.1-7-.6-7.5-.7l-.4-.1 1-1c1.2-1.2 2-2.4 2.8-3.9zm-102.1 2.8h.1v-1.5h1.3c18.8.3 38.7 4.1 56.6 10.7 12.8 4.7 24.1 10.5 35.2 18 1.8 1.2 5 3.4 5.6 3.9l.2.2-4.3 5.8c-2.3 3.3-4.3 5.9-4.4 6s-.4-.1-1.2-.8c-.6-.5-1.1-1-1.2-1 0-.1 1.4-2.2 3.3-4.7 3.2-4.4 3.4-4.6 3.2-4.8-.3-.3-5.1-3.5-7.5-5-12.7-8-26.5-14.2-40.6-18.4-13.4-4-28.6-6.3-43.3-6.7l-3-.1zm-8.7-1.4c.4 0 2-.1 3.5-.1 2.4 0 2.7 0 2.8.2.1.1.1.8.1 1.5v1.2l-.7.1c-.4 0-2.3.1-4.3.1-13.8.3-30.1 2.8-44.5 7.1-14.9 4.5-28.6 10.8-42.2 19.3-2.8 1.8-4.1 2.7-4 2.9.4.4 6.3 8.7 6.3 8.8.1 0-.3.5-.8.9-1.3 1.2-1.2 1.1-1.5.9-.7-.6-8.3-11.2-8.3-11.5 0-.1 4.5-3.2 7.5-5.1 16.4-10.6 35.2-18.2 55.1-22.5 10.4-2.2 19.9-3.4 31-3.8zm-53 3.9c7.1-.9 7.8-.9 7.5-.8-.1.1-4.4 1.7-9.7 3.5s-10 3.5-10.5 3.7c-2.8 1.1-5.8 1.4-9.7.9-5.1-.7-8.2-1.9-10.2-4-.9-1-.9-.9 1.2-.7 2.1.3 5 .4 6.8.3 1.5-.1 11.4-1.2 24.6-2.9zm112.9-.7c-.2-.2-1.2-.3 9.1.9 17.4 2.2 22.3 2.7 25.1 2.7 2.1 0 3.7-.1 5.2-.4l1-.2c.2 0-.1.5-.8 1.2-1.4 1.5-4.1 2.8-6.9 3.4-2 .4-6.9.8-8.2.6-1-.1-.8 0-4.7-1.4-5.6-1.9-11.3-3.9-15.5-5.3-2.2-.7-4.2-1.4-4.3-1.5zm-152 2.9c1.3-.2 2.5-.3 2.7-.2.1 0 .3.2.6.8.6 1.3 1.3 2.3 2.5 3.5.6.6 1.1 1.2 1.1 1.2s-.5.1-1.1.2c-5.7.8-9.1.9-12.9.2-2.8-.5-4.7-1.4-6.5-3.1-.5-.4-1.5-1.6-1.5-1.8 0-.1.5-.1 1 0h4.1c3.3 0 4.9-.2 10-.8zm195.1.5c.4-.9.4-.9.7-.8.5.1 7.3.8 10 1 1.4.1 2.9.1 4.8.1h2.7c0 .2-.5.9-1.2 1.6-1.7 1.8-3.8 2.8-6.8 3.3-3.6.6-6.3.6-11.6-.1-2-.3-2.2-.3-2.2-.4 0 0 .4-.5 1-1.1 1.2-1.2 1.9-2.2 2.6-3.6zm-113.9-.6c1.9-.3 4.7-.1 8 .5 1.2.2 1.9.2 2.1 0 .1-.1.6-.1.6.1 0 0-.4 1.1-.9 2.3-.7 1.9-.9 2.3-1.1 2.3-.3 0-.4-.2-.5-.6-.1-.5-.4-.8-1.2-1.1-1.7-.5-3.9-.8-5.5-.6-2.3.3-4 1-5.2 2.2s-1.7 2.5-1.6 4.5c.2 3.2 2 5.4 4.9 6 1.1.2 3.1.2 4.3 0 1-.2 2.7-.7 3.7-1.1l.6-.3v-1.4c0-.8 0-1.4-.1-1.5s-4.2.1-4.6.3c-.4.1-.6.4-.6.7 0 .2-.5.5-.6.4s-.2-1-.3-2.2c-.2-1.9-.2-2.1 0-2.2.2-.2.3-.2.5.2.1.2.3.3.5.4.2 0 1.7 0 4.7-.2 4.6-.2 4.7-.2 4.6.2-.1.1-.3.3-.5.4l-.4.2v1.1c0 .6 0 1.6.1 2.3.1 1.1.1 1.2.4 1.6.2.2.3.5.3.5 0 .3-1.3 1.2-2.5 1.8-3 1.4-7.7 2.1-10.9 1.6-2.3-.4-4-1.2-5.5-2.8-1.3-1.3-1.9-2.6-2.3-4.5-.8-3.8.6-7.2 3.7-9.2 1.4-.9 3.4-1.6 5.3-1.9zm30.4 0c1-.2 3.8-.2 5.4.2 2.2.3 4.2.9 6.8 2.1 1.2.6 1.7.8 2.2.8.8.1.9.2.5.7-.2.2-.9 1-1.7 1.9s-1.4 1.5-1.5 1.5c-.1-.1-.2-.3-.3-.6-.2-.7-.4-1-1.1-1.4-2.5-1.6-4.9-2.3-7.7-2.2-1.8.1-2.7.4-3.3.9-.8.8-.6 1.7.7 2.3.9.5 1.5.6 3.5 1 4 .7 6 1.3 7.4 2 .9.5 1.9 1.3 2.2 2 .7 1.4.7 2.8 0 4.3-.5 1-1.2 1.7-2.3 2.2-1.5.7-2.8 1-4.8 1.1-3.8.1-7.6-.6-10.4-2-.7-.3-.9-.3-1.3-.3-1 .1-1 0 .3-2.3l1.1-2.1.5.6c.5.7 1.1 1.2 2.3 1.7 2.2 1 4 1.4 6.6 1.3 1.7 0 2.6-.2 3.4-.7.7-.4.8-1.3.4-2s-2.1-1.2-4.7-1.7c-6.1-1.1-7.4-1.5-8.7-2.7-1.8-1.8-1.8-4.9.1-6.6 1-1 2.8-1.8 4.4-2zm16.9.9c.4-.1.6.1.8.5.1.2.3.4.4.5s2.2.6 4.5 1.2c2.3.5 5.3 1.3 6.5 1.6 4.1 1 3.7 1 4.1.7.3-.3 1-.3.9-.1 0 .1-.4 1.1-.7 2.3-.5 1.7-.6 2.1-.8 2.2s-.5-.2-.5-.5c0-.1-.1-.3-.2-.4-.2-.2-5.2-1.7-5.3-1.6 0 .1-.7 2.8-2.2 8.6l-1.3 5.1.2.3c.1.2.2.5.2.6v.2l-2.4-.6c-1.4-.3-2.5-.6-2.5-.6-.2-.1.1-.5.3-.6s.3-.3.4-.4c.1-.4 3-13.2 3-13.5 0-.2-.1-.3-.2-.3s-1.2-.2-2.4-.5c-2.5-.6-2.9-.6-3.2-.3-.2.2-.8.4-.8.2 0 0 .3-1.1.6-2.3s.6-2.3.6-2.3zm-62.5 1.9c1.8-.3 2.8-.5 2.7-.2.2.1.1.4-.1.7-.1.2-.2.4-.2.6 0 .5 3 14.8 3.2 15.2.1.2.2.4.3.4.2.1.6.7.5.7 0 0-1.1.2-2.5.5s-2.5.5-2.6.5c-.2 0-.3-.4-.1-.7s.2-.3-.1-.6-12.4-8.1-12.7-8.2c-.2-.1-.2 0-.1.3.1.5 3 10.3 3.1 10.6.1.1.3.3.5.4.3.1.7.4.6.5 0 0-1 .3-2.2.7-1.1.3-2.2.7-2.3.7-.2 0-.2 0-.2-.3 0-.2 0-.4.1-.4s.1-.2.1-.4c0-.3-4.5-14.6-4.8-15.3-.1-.2-.3-.4-.5-.4s-.6-.4-.5-.5c0-.1 1.2-.4 2.7-.8s2.8-.8 2.9-.8c.2-.1.2 0 .2.5v.6l2.2 1.4c1.2.7 4.1 2.6 6.4 4.1l4.3 2.7-.1-.5c-.1-.3-.3-1.4-.5-2.4-1.1-5.3-1.6-8-1.8-8.2-.1-.1-.3-.2-.5-.3-.2 0-.4-.2-.5-.3-.2-.3-.2-.3 2.5-.8zm32.9 2.4c.9-.2 2.1.1 2.8.8.5.5.9 1.3.9 1.9s-.4 1.4-.9 1.9c-.9.8-2.3 1.1-3.5.5-1.4-.6-2-2.1-1.4-3.4.4-.8 1.1-1.5 2.1-1.7zm-90 2.2c.7-.1 1.6-.1 3.2.1.9.1 2.8.3 4.2.4s2.6.2 2.8.3l.3.1-.3.3c-1.4 1.2-5.6 3.3-8.5 4.4-5.1 2-8.4 2.1-13.3.6-1.6-.5-2.8-1.1-3.9-2-.8-.6-2.1-2.1-2.1-2.3 0-.1 1.8-.1 4-.1 5.1 0 7.2-.2 11.4-1.3 1-.2 2-.5 2.2-.5zm176 .2c3.3-.4 4-.4 7 .4 4.9 1.2 8.6 1.6 13 1.3 1.3-.1 2.3-.1 2.3-.1.1.1-.7 1.1-1.5 1.8-1.8 1.6-3.5 2.4-6.3 3-1.8.4-4 .6-5.5.5-3.4-.2-10.2-2.9-14.1-5.6-1.1-.7-1-.8 1.1-.9.9-.1 2.7-.2 4-.4zm-141.6 1.2c2-.7 2.9-1 3.1-.9.1.1.1.5 0 .5-.3 0-.6.4-.6.7 0 .4 5.1 15.1 5.3 15.3.1.1.4.2.6.2.4 0 .5.1.5.3.1.3 0 .3-2.5 1.3-1.4.6-2.7 1.1-2.7 1.1-.1 0-.2-.1-.2-.2-.1-.1 0-.3.2-.5s.3-.4.3-.6c0-.3-4.2-12.6-5.1-15-.3-.6-.3-.6-1.1-.7-.3-.1-.4-.1-.5-.3s0-.3 2.7-1.2zm107-.2c.6-.1 2 0 3 .2 2.6.5 4.6 1.5 6.4 3.4 1.4 1.4 2.3 3 2.6 4.7.4 1.6 0 4-.9 5.7-1.1 2.1-3 3.7-5.4 4.5-3 1-6.3.5-9.2-1.3-2.1-1.3-3.6-3.2-4.3-5.6-.3-.8-.3-1.1-.3-2.4 0-1.7.1-2.4.7-3.8 1.2-3.1 4-5.1 7.4-5.4zm3.9 3.7c-.7-.3-1-.4-2-.4-2.2-.1-3.5.4-4.8 1.7-1.1 1.1-1.7 2.5-1.7 4.1 0 1.7.7 3.2 2 4.5 1.5 1.5 3.3 2.2 5.3 2.1 2.1-.1 3.8-1 4.9-2.6.8-1.1 1-1.8 1-3.2 0-1.3-.2-2-.8-3-.9-1.5-2.3-2.6-3.9-3.2zm-116.1-1.5c.9-.4 1.7-.8 1.8-.9v1c-.1 2.1 1 16.5 1.4 17 .1.2.3.3.5.4.2 0 .4.2.4.3s-.3.3-2.1 1.2c-1.2.6-2.2 1-2.3 1-.1-.1-.2-.3-.1-.7l.1-.6-1.6-1.6c-4.6-4.7-6.8-7-6.9-7 0 0-.1.1-.1.2 0 .6 1.6 10.3 1.9 11.2.1.3.3.6.6.9.2.3.4.5.4.6-.1.1-1 .7-2.1 1.3-1.9 1.1-2.1 1.2-2.2 1-.1-.1-.1-.3 0-.5.1-.3 0-.4-.1-.6-.2-.3-1.6-1.6-7.9-7.1-4.8-4.2-4.5-4-5.1-4.2-.2-.1-.5-.2-.5-.3 0-.2 2.7-2.1 4.1-2.8.5-.3.5-.3.6-.1v.6c-.1.4-.1.5.6 1.1.9.9 7.7 7.1 7.8 7.1s.1.3-.9-5.8c-.4-2.7-.9-5.1-1-5.3s-.3-.4-.4-.4c-.2 0-.3-.2-.4-.3-.1-.2 0-.2 2.3-1.4 1.3-.7 2.4-1.2 2.5-1.1.1 0 .1.3.1.6 0 .5 0 .5.6 1.2 1.3 1.4 6.9 7.4 7.1 7.5s.2.1.1-.4c0-.3-.3-2.6-.5-5.2-.6-6.1-.6-5.8-1.1-6-.1 0-.3-.2-.4-.3-.2-.2-.1-.2.5-.5.4-.2 1.4-.7 2.3-1.1zm127.6 3.3c0-.1.1-.2.3.1.4 0 7.7 3.7 11.3 5.7 1.9 1.1 2.3 1.4 3.5 2.5 1.1 1.1 1.5 2 1.6 3.3 0 1.1-.1 1.8-.6 2.8-.9 1.8-2.9 2.9-4.8 2.7-1.2-.2-3.5-1.1-6.4-2.7-1-.6-2.5-1.3-3.2-1.7l-1.3-.7-1.4 2.8c-.8 1.6-1.4 2.9-1.4 3s.1.3.3.5c.3.2.4.3.3.5-.1.1-.1.2-.2.2-.2 0-5.4-2.6-5.4-2.7 0-.3.2-.4.7-.3.4 0 .5 0 .7-.2.3-.3 6.9-14.4 6.9-14.6 0-.1-.2-.4-.5-.6-.3-.3-.5-.5-.4-.6zm4.8 5.6c-.4-.3-.9-.5-.9-.4-.1 0-2 3.7-1.9 3.9 0 .1 4.3 2.4 6.6 3.6 1 .4 1.3.6 1.9.6.6.1.8 0 1.1-.2.9-.6 1.4-2 .9-2.8-.4-.5-1.4-1.3-2.7-2-1.3-.8-3.9-2.1-5-2.7zm-76.2.7c1.2 0 2.6-.1 3.2-.1h1.1v3.1l-2.2.1c-10.7.3-19.6 1.5-29.1 3.8-16.5 4-33 11.5-48.4 22-1.2.8-2.2 1.4-2.2 1.4-.3-.3-8.3-11.5-8.3-11.6l1.1-1.1c1.1-.9 1.2-1 1.3-.8.1.1 1.6 2.2 3.4 4.7 2.1 2.9 3.3 4.5 3.4 4.4s.9-.6 1.8-1.2c23.8-15.6 48.5-23.7 74.9-24.7zm6.5 3.1v-3.1h1.3c3.4 0 10.3.6 15.1 1.3 14.8 2.1 29.3 6.8 43.4 13.8 6.4 3.2 11.1 5.9 17.2 10 1.5 1 2.7 1.8 2.8 1.8.1-.1 1.6-2.1 3.4-4.5 1.8-2.5 3.3-4.5 3.3-4.5.1-.1 2.2 1.8 2.3 2 .1.1-7.6 10.7-8.2 11.4-.1.1-.9-.5-2-1.3-2.8-2-7.2-4.9-10-6.6-21-12.6-43.4-19.4-66.4-20.2zm-7.6 2.8c5.8-.2 14.7.1 17.5.6l.8.1-1 .7c-5.8 4.4-14.9 4.8-21.4.9-1-.7-2.3-1.6-2.2-1.7.2-.2 3.7-.5 6.3-.6zm-13.8 1.4c1.6-.3 3-.5 3.1-.6.4 0 .9.3 1.9 1 4.3 3.4 9.3 5.1 14.7 5.1 2.4 0 3.9-.2 6-.7 3.1-.7 6-2.1 8.6-4.1 1.2-.9 1.4-1 2.1-1 1 0 6.6.9 10.4 1.7 2.4.4 5.2 1.1 5.4 1.2.1.1-.1.4-.8 1.4-5.8 8.2-14.4 13.7-24.2 15.6-2.4.4-4.3.6-7.1.6-3.6 0-6.1-.3-9.5-1.1-9.1-2.3-17.1-7.8-22.3-15.4-.4-.7-.8-1.2-.8-1.3l.6-.2c4.4-1 7.3-1.5 11.9-2.2zm2 2.2c-.6-.6-1.2-1-1.1-.9-.1 0-4.3 4.7-4.3 4.8s.6.6 1.2 1.2l1.2 1.1.3-.3c.1-.2.4-.4.5-.6l.2-.3-1.2-1 .8-.8 1 .8 1-1.2-.3-.2c-.1-.1-.4-.3-.5-.4l-.2-.2.4-.8 1.2 1 .5-.5c.3-.3.5-.5.5-.6 0 0-.6-.5-1.2-1.1zm4.1 3.1c-.4-.3-.8-.5-.8-.3 0 0-.1.6-.1 1.4-.1 2.1-.1 2-1.6 3.2-.8.6-1.4 1-1.4 1.1-.1 0 .3.3.7.5l.8.4.6-.5.7-.5-.1.6c0 .3-.1.7-.1.8-.1.1.2.3.8.6.5.3.9.5.9.4.1-2 .3-3.7.4-3.8s.7-.6 1.4-1.1l1.2-.9-1.8-.8-.4.3c-.3.1-.5.3-.5.3v-.6l.1-.6zm15.7 4.6-.1-.7h-1.5c-.9 0-1.6 0-1.6.1-.1.2-.2 3.4-.1 4.9l.1 1.6h3.1v-1.5h-.6c-.3 0-.6-.1-.7-.1-.1-.1-.1-.3-.1-.5.1-.4.1-.4.7-.5l.6-.1v-.7c0-.7 0-.7-.9-.8-.3 0-.4 0-.4-.4-.1-.4 0-.4.3-.4.2 0 .6-.1.8-.1l.4-.1zm17.4-6.9c-.3-.3-.6-.6-.7-.6-.2 0-1 .5-1.4.9s-.4.6-.4 1.2c.1 1.3 1 2.1 2.4 2.1.9 0 1.3.3 1.1.7-.1.2-.3.3-.7.4-.7.1-.7.1.1 1 .5.5.5.5.8.4 1.6-.7 2.1-2.3 1.1-3.5-.5-.6-.9-.7-1.9-.8-.7-.1-.9-.1-1-.3-.2-.3.1-.6.7-.7l.5-.1zm-26.6 5.1c-.3-.1-.6-.2-.7-.3-.2 0-.1-.3-1 3.4-.5 2.1-.7 3.1-.6 3.1.2.1 1.6.4 1.6.3s.1-.5.3-1l.3-.9h.9c1.1 0 1.5-.2 1.9-1 .6-1.1.5-2-.3-2.7-.3-.2-1.3-.6-2.4-.9zm.5 2.1c.1-.2.2-.4.3-.4.3 0 .5.3.5.6s-.5.8-.8.8-.3 0 0-1zm21.4-4c-.2-.4-.4-.7-.5-.8-.1 0-.8.4-1.7.8l-1.6.8.3.7c.2.4.4.7.5.7s.3-.1.5-.1l.4-.1 2.2 4.4.7-.4c.5-.2.8-.4.8-.5 0 0-.4-1-1-2.2l-1.1-2.1.3-.2c.1-.1.3-.2.4-.3.1 0 .1-.2-.2-.7zm-6.6 2.2c-.2 0-.5-.1-.6-.1-.2 0-2.5.5-2.7.6-.1 0 .1 1 .6 3.2.4 1.8.8 3.2.8 3.2s.3-.1.8-.2.8-.2.8-.3-.1-.6-.2-1.1l-.2-1s.3.4.7 1c.4.5.7 1 .8 1 .2 0 1.6-.4 1.7-.5.1 0-.3-.5-.8-1.1s-.9-1.1-.9-1.1c0-.1.2-.3.3-.5.7-1 0-2.8-1.1-3.1zm-1.2 1.5c.1-.1.2-.1.5.1s.4.3.4.7c0 .2-.1.4-.3.5-.1.1-.3.1-.3.1-.1-.1-.4-1.3-.3-1.4zm26.9-4.7c.2-.2.4-.5.6-.8.1 0 7.8 2.8 11.8 4.3 6.2 2.3 10 3.9 15.3 6.6 4 2 9.4 5 10.3 5.7.4.3.4.9 0 1.2s-.2.3-3.3-.6c-6.3-1.8-11.5-3.2-15.5-4.1s-14.1-2.6-15.2-2.6c-.8 0-7.2.8-7.6.9-.6.2-1.1.6-1.4 1.1-.2.3-.8 2.1-1.4 4.1s-1.2 3.8-1.3 4c-.3.4-.9.8-1.4.8-.2 0-1.8-.3-3.7-.8-4.4-1-4.4-1-5-.9-.9.2-1.2.4-3.7 3.8-1.3 1.8-2.5 3.3-2.6 3.4-.3.3-1 .4-1.5.2-.4-.1-2.2-1.2-4.7-2.9l-1.3-.8v-5.1l.8-.1c10.6-.9 19.8-5.2 26.8-12.6 1.4-1.5 3.4-3.8 4-4.8zm-69.4.3c.9-.4 1.7-.7 1.8-.8.1 0 .4.4.8.9 5.5 7.3 12.6 12.4 20.8 15 2.8.9 6.9 1.7 9.9 1.9l1 .1v4.7l-2.9 1.9c-1.6 1-3.1 2-3.4 2.1-.7.3-1.3.3-1.8-.1-.2-.2-1.2-1.5-2.3-2.9-2.6-3.5-2.7-3.7-3.3-4-.9-.4-1.3-.4-5.1.5-3.9 1-4.5 1-5 .8-.7-.3-.8-.5-1.8-3.9-.5-1.7-1-3.5-1.1-3.8-.2-.8-.7-1.4-1.3-1.8-.5-.2-.8-.3-3.4-.6-5.3-.7-5.1-.7-7.9-.3-9.9 1.4-17.3 3-27.4 5.9l-3.3 1-.4-.2c-.3-.2-.4-.2-.3-.6 0-.3.1-.5.2-.6.3-.3 5.1-2.9 8.8-4.8 7.4-3.6 14.6-6.4 23-8.9 1.5-.5 3.5-1.1 4.4-1.5z" fill="#006938" transform="matrix(1.24737 0 0 1.24737 100 137.816)"/></svg>